<?xml version="1.0" encoding="UTF-8" standalone="no"?>
<!-- Created with Inkscape (http://www.inkscape.org/) -->

<svg
   width="500"
   height="500"
   viewBox="0 0 132.29166 132.29167"
   version="1.1"
   id="svg1"
   xml:space="preserve"
   inkscape:export-filename="lojinha do pouso.svg"
   inkscape:export-xdpi="96"
   inkscape:export-ydpi="96"
   inkscape:version="1.4 (86a8ad7, 2024-10-11)"
   sodipodi:docname="lojinha do pouso.svg"
   xmlns:inkscape="http://www.inkscape.org/namespaces/inkscape"
   xmlns:sodipodi="http://sodipodi.sourceforge.net/DTD/sodipodi-0.dtd"
   xmlns="http://www.w3.org/2000/svg"
   xmlns:svg="http://www.w3.org/2000/svg"><sodipodi:namedview
     id="namedview1"
     pagecolor="#ffffff"
     bordercolor="#000000"
     borderopacity="0.25"
     inkscape:showpageshadow="2"
     inkscape:pageopacity="0.0"
     inkscape:pagecheckerboard="0"
     inkscape:deskcolor="#d1d1d1"
     inkscape:document-units="mm"
     inkscape:zoom="1.4520903"
     inkscape:cx="162.52432"
     inkscape:cy="235.86687"
     inkscape:window-width="1920"
     inkscape:window-height="1017"
     inkscape:window-x="-8"
     inkscape:window-y="-8"
     inkscape:window-maximized="1"
     inkscape:current-layer="layer1" /><defs
     id="defs1"><linearGradient
       id="swatch9"
       inkscape:swatch="solid"><stop
         style="stop-color:#2a5c82;stop-opacity:1;"
         offset="0"
         id="stop9" /></linearGradient></defs><g
     inkscape:label="Camada 1"
     inkscape:groupmode="layer"
     id="layer1"><path
       style="fill:#2a5c82;fill-opacity:1;stroke-width:0.513516"
       d="m 62.33741,107.98904 c -6.248041,-0.65968 -11.069492,-2.54164 -14.912757,-5.8209 -2.83499,-2.418937 -5.249575,-6.496113 -6.295392,-10.630125 -0.247238,-0.977304 -0.247238,-0.977304 -1.080762,-0.899469 -1.495247,0.139629 -2.369345,-0.439935 -2.370597,-1.571813 -5.13e-4,-0.711919 0.629473,-1.19206 2.726206,-2.076864 2.649524,-1.118077 3.437957,-1.27644 4.376747,-0.879087 0.656156,0.277718 0.945395,0.682302 1.008053,1.41002 0.07125,0.827484 -0.273899,1.409191 -1.035486,1.745202 -0.37273,0.164449 -0.554371,0.330536 -0.554371,0.506931 0,0.46742 0.934199,3.069689 1.538819,4.28648 0.323782,0.651611 0.914212,1.67129 1.31206,2.265953 0.944064,1.411081 3.444066,3.900042 4.825657,4.804322 6.708316,4.39082 16.16152,4.86419 23.274463,1.16548 1.900677,-0.98835 3.338235,-2.05179 4.759056,-3.52055 1.383398,-1.430077 2.33976,-2.792817 3.269388,-4.658616 0.599306,-1.202836 1.645047,-4.105798 1.645047,-4.566628 0,-0.102124 -0.25358,-0.300027 -0.563512,-0.439791 -1.39175,-0.627583 -1.434891,-2.437289 -0.07285,-3.055681 1.081007,-0.490791 2.040252,-0.295075 4.650858,0.948956 1.778766,0.847633 2.235421,1.254528 2.235421,1.991826 0,1.109948 -0.608353,1.5797 -2.028621,1.566402 -0.908085,-0.009 -0.908085,-0.009 -1.269578,1.277638 -1.769496,6.295581 -5.313954,10.665154 -10.899986,13.437404 -2.512136,1.24672 -4.94645,2.00549 -7.880334,2.45628 -1.335272,0.20517 -5.591186,0.36922 -6.657529,0.25663 z M 52.199641,88.18391 c -1.655263,-0.591538 -2.551965,-2.410921 -1.95659,-3.969878 0.282625,-0.740052 0.89486,-1.476117 1.482872,-1.782806 2.403066,-1.253349 5.210076,0.945787 4.550524,3.565107 -0.216487,0.85974 -1.295951,2.008489 -2.091109,2.225307 -0.707477,0.192915 -1.375804,0.180211 -1.985697,-0.03772 z m 22.640218,-0.165548 c -0.980343,-0.358831 -1.833873,-1.41832 -2.043712,-2.536856 -0.05305,-0.282634 -0.01953,-0.808868 0.07723,-1.212009 0.307253,-1.280771 1.755335,-2.419806 3.076357,-2.419806 1.059807,0 2.310828,0.790826 2.857862,1.80658 0.353727,0.656807 0.318763,2.175739 -0.06692,2.90696 -0.712507,1.350865 -2.432632,1.992528 -3.900817,1.455131 z M 11.52283,84.122179 c -0.796359,-0.325369 -1.045253,-0.535056 -1.299311,-1.094607 -0.42056,-0.92627 -0.3640437,-1.812866 0.889207,-13.949462 0.802395,-7.770477 1.017348,-10.536333 1.029339,-13.244803 0.01011,-2.283806 0.09656,-2.752039 0.573952,-3.108439 0.463522,-0.346043 1.996151,-0.470437 2.746228,-0.222888 1.357622,0.448053 1.759426,1.366795 1.678808,3.838668 -0.02621,0.803402 -0.03839,1.460663 -0.02709,1.460579 0.0113,-7.8e-5 0.13909,-0.198858 0.283975,-0.44172 1.04899,-1.758358 3.10795,-3.680026 4.830812,-4.508684 2.558745,-1.23071 5.687989,-1.203231 7.605357,0.06678 1.647468,1.091238 2.489137,3.095305 2.63989,6.285748 0.08231,1.741951 0.08231,1.741951 0.572345,0.815207 1.498806,-2.834492 3.594213,-4.995689 5.921799,-6.107707 2.405161,-1.149085 5.160875,-1.322074 7.375841,-0.463012 2.403431,0.932157 4.347254,3.51323 4.990264,6.626241 0.119044,0.576338 0.241368,1.072806 0.27183,1.103265 0.03046,0.03046 0.365254,-0.143461 0.743987,-0.386493 1.316754,-0.844963 2.807903,-2.856306 3.005253,-4.053662 0.0575,-0.348956 0.108218,-1.171409 0.112675,-1.827673 0.01453,-2.137862 0.496012,-2.628479 2.467646,-2.514347 1.206651,0.06986 1.808815,0.35777 2.223084,1.062943 0.411543,0.700521 0.340241,2.706758 -0.250482,7.047918 -0.917392,6.741816 -0.941055,8.55644 -0.135014,10.352543 0.653912,1.457113 1.611718,1.956998 3.570255,1.863358 1.097894,-0.0525 1.332437,-0.114751 2.37097,-0.629356 3.905991,-1.935497 5.89898,-7.719641 5.772351,-16.752758 -0.03454,-2.463577 -0.03454,-2.463577 0.335418,-2.7818 0.809829,-0.696586 2.549058,-0.761612 3.503311,-0.130983 0.810178,0.535415 0.987396,1.088996 1.046217,3.268083 0.02823,1.046188 -0.07619,4.387023 -0.232061,7.424092 -0.308509,6.010817 -0.340205,8.255688 -0.152966,10.832526 0.07097,0.976648 0.07175,1.813195 0.0018,1.996943 -0.214472,0.564114 -0.747087,0.787314 -2.017759,0.845569 -1.055595,0.04836 -1.217476,0.02216 -1.634661,-0.264683 -0.859333,-0.590883 -0.98005,-0.878034 -1.111922,-2.64494 -0.0662,-0.88707 -0.08636,-1.720029 -0.04476,-1.851007 0.110335,-0.347636 -0.146508,-0.291561 -0.310209,0.06771 -0.253033,0.55536 -1.532338,1.978626 -2.396684,2.666411 -3.456429,2.750356 -8.739743,3.090446 -11.599984,0.746697 -1.944321,-1.593226 -2.724579,-4.743562 -2.365344,-9.550204 0.09261,-1.239103 0.202968,-2.619757 0.245246,-3.068121 0.07688,-0.815207 0.07688,-0.815207 -0.992422,0.219325 -0.588114,0.568992 -1.350558,1.222893 -1.694321,1.453105 -0.609611,0.408252 -0.627034,0.439714 -0.706394,1.275226 -0.18941,1.99415 -1.329806,4.814194 -2.687324,6.645382 -2.298632,3.100688 -5.475167,4.61429 -9.296308,4.42964 -4.99047,-0.241157 -8.025533,-3.657502 -8.095452,-9.112465 -0.0092,-0.720342 -0.06193,-1.309711 -0.117098,-1.309711 -0.05518,0 -0.169203,0.229941 -0.253405,0.510988 -0.185251,0.618314 -1.080367,2.133027 -1.873256,3.169921 -3.288271,4.300219 -9.188632,5.636183 -13.003916,2.944364 -0.209798,-0.14802 -0.401591,-0.247175 -0.426203,-0.220345 -0.122915,0.134017 -0.37912,3.693806 -0.487177,6.768982 -0.133304,3.793717 -0.161754,3.914125 -1.027128,4.347039 -0.511796,0.256041 -2.045787,0.318491 -2.569271,0.104609 z M 42.798744,72.687901 c 1.291088,-0.613142 2.418723,-1.715475 2.997708,-2.930452 0.465795,-0.97746 1.050356,-2.654397 1.188857,-3.41047 0.08964,-0.489313 0.08964,-0.489313 -0.974674,-0.568937 -1.390659,-0.10404 -2.447019,-0.392465 -3.781669,-1.03255 -1.966609,-0.943163 -3.073256,-2.233054 -3.79846,-4.4274 -0.219452,-0.664038 -1.518817,2.38788 -1.917495,4.503763 -0.266643,1.415161 -0.201473,4.078178 0.124604,5.091503 0.988052,3.070507 3.323385,4.122179 6.161129,2.774543 z M 22.411102,70.506657 c 0.52773,-0.254747 1.164954,-0.755311 1.889052,-1.483924 0.912133,-0.917823 1.208935,-1.335225 1.796244,-2.526111 0.930995,-1.88779 1.390062,-3.670558 1.487862,-5.778027 0.118109,-2.545197 -0.386529,-3.863 -1.702143,-4.444955 -0.876393,-0.387671 -1.944322,-0.270265 -3.203428,0.352183 -2.839958,1.403939 -5.364274,5.657227 -6.363823,10.722568 -0.288731,1.46318 -0.288731,1.46318 0.176975,1.943715 0.633509,0.653688 1.661781,1.294854 2.41946,1.508623 1.022611,0.288514 2.560632,0.159285 3.499801,-0.294072 z m 24.816853,-8.59558 c -0.170892,-1.759552 -0.790064,-3.341917 -1.69202,-4.324147 -0.735252,-0.80068 -1.451402,-1.13782 -2.423829,-1.141041 -2.379346,-0.0079 -2.697079,2.359718 -0.584776,4.357449 0.861849,0.815098 1.890412,1.312225 3.210586,1.551748 1.605622,0.291315 1.562697,0.304106 1.490039,-0.444009 z m 35.285834,15.045666 c -1.564312,-0.217122 -3.509242,-0.710122 -4.230177,-1.072272 -1.037728,-0.521286 -1.27361,-0.911347 -1.267152,-2.095403 0.006,-1.098831 0.327336,-1.890481 0.973789,-2.398982 0.493926,-0.388524 0.817611,-0.316175 2.689324,0.601126 1.75208,0.858672 2.783747,1.141635 4.551572,1.248391 2.227172,0.134497 4.351753,-0.523696 5.216492,-1.616062 0.510922,-0.645408 0.6501,-1.841647 0.294312,-2.529654 -0.401908,-0.777216 -1.162494,-1.09536 -3.944695,-1.650023 -3.779308,-0.753449 -6.342142,-1.682548 -7.444819,-2.698955 -1.619996,-1.493266 -1.939625,-4.55788 -0.686944,-6.586344 1.320625,-2.138482 4.299888,-3.914346 7.781375,-4.638285 1.684494,-0.350267 4.20268,-0.50027 5.743671,-0.342133 1.793388,0.184031 2.320782,0.336168 2.886123,0.832545 1.20984,1.062252 1.407301,4.13015 0.283975,4.412093 -0.421525,0.105794 -0.740097,-4.5e-4 -1.683769,-0.561542 -1.147621,-0.682349 -2.25434,-0.928324 -4.097945,-0.910783 -4.417849,0.04205 -7.70416,2.246422 -6.348336,4.258336 0.630449,0.935515 1.944437,1.541531 5.270891,2.430926 2.632066,0.703729 3.697063,1.045484 4.482178,1.438321 0.856402,0.428497 1.973453,1.335062 2.337388,1.89694 0.167196,0.25814 0.349857,0.470101 0.405897,0.471025 0.05609,0.0012 0.101899,-0.301846 0.101899,-0.672839 0,-0.370981 0.116989,-1.272805 0.259966,-2.00405 1.09044,-5.576731 4.583136,-9.673978 9.482236,-11.123485 1.59553,-0.472076 3.80987,-0.592469 5.0674,-0.275508 3.69265,0.930721 6.14467,4.339593 6.47211,8.997703 0.0493,0.701561 0.11414,1.275569 0.14407,1.275569 0.25686,0 1.83257,-1.213912 2.84563,-2.192231 1.09527,-1.057717 1.28626,-1.190514 1.56532,-1.088463 1.29541,0.473724 0.56682,2.531319 -1.72019,4.857886 -0.67254,0.684182 -1.70479,1.557086 -2.29388,1.939775 -1.02465,0.665648 -1.08405,0.732602 -1.37025,1.544548 -1.49951,4.254225 -5.11637,7.479126 -9.24388,8.242133 -1.1112,0.205424 -3.49292,0.179627 -4.57416,-0.04956 -2.3292,-0.493662 -4.599658,-2.239121 -5.580149,-4.28985 -0.267177,-0.558797 -0.525954,-1.138278 -0.575063,-1.287735 -0.07256,-0.220905 -0.182878,-0.09383 -0.589594,0.679339 -1.270669,2.415534 -3.854338,4.074292 -7.415268,4.760732 -1.328593,0.25611 -4.568363,0.366205 -5.789347,0.196749 z m 25.722321,-4.252712 c 1.22958,-0.607699 2.20365,-1.607777 2.88635,-2.963415 0.25688,-0.5101 0.46705,-0.990125 0.46705,-1.066721 0,-0.07659 -0.30169,-0.139256 -0.67045,-0.139256 -2.25521,0 -4.69009,-1.086906 -6.53743,-2.918244 -0.98146,-0.972942 -1.89527,-2.489867 -1.89527,-3.14613 0,-0.601559 -0.22392,-0.323683 -0.58951,0.731557 -0.55855,1.612217 -0.76422,2.811002 -0.76681,4.469328 -0.005,2.538167 0.6372,3.984141 2.17709,4.909887 1.02904,0.618639 1.38602,0.705238 2.73361,0.663179 1.04357,-0.03256 1.29192,-0.09368 2.19537,-0.540185 z m 4.48655,-8.754936 c 0.17694,-1.904186 -0.34997,-4.501847 -1.13217,-5.581652 -0.88683,-1.224229 -2.31558,-1.799961 -3.77839,-1.522541 -1.7456,0.331048 -2.70472,1.396789 -2.5722,2.858168 0.23404,2.581122 3.49936,5.117379 6.63581,5.154192 0.76173,0.0089 0.76173,0.0089 0.84695,-0.908167 z M 33.805162,50.613664 c -0.376639,-0.165959 -0.83718,-0.687323 -1.009958,-1.14334 -0.378107,-0.997932 -0.0036,-2.081914 1.148813,-3.326831 0.899141,-0.971158 2.333095,-2.040925 3.574695,-2.666824 0.597543,-0.301224 0.774167,-0.476872 1.008191,-1.002636 0.371858,-0.835409 1.586196,-4.157265 1.537525,-4.20594 -0.02079,-0.0208 -0.367241,0.114853 -0.76991,0.301414 -0.402665,0.186555 -0.977104,0.37651 -1.276525,0.422125 -0.480379,0.07317 -0.608316,0.178863 -1.087875,0.8987 -2.381595,3.574859 -6.692216,3.547879 -7.260242,-0.04545 -0.334628,-2.116833 0.685888,-4.711133 2.640737,-6.713148 1.977701,-2.025421 4.081387,-2.392046 5.56206,-0.969339 1.086108,1.043588 1.26,2.462661 0.563559,4.59894 -0.208868,0.640688 -0.253137,0.931287 -0.141874,0.931287 0.264229,0 2.036708,-0.927015 2.26913,-1.186767 0.230374,-0.257467 1.265607,-3.279804 1.402578,-4.09478 0.14813,-0.881389 0.196723,-0.956393 0.678166,-1.04671 1.043326,-0.195731 2.236373,0.439544 2.232543,1.18879 -0.0021,0.397077 -0.949066,3.337143 -1.956584,6.074201 -0.423056,1.149285 -0.73683,2.121972 -0.697279,2.161524 0.03954,0.03954 0.783687,-0.625638 1.653631,-1.478203 1.333725,-1.307079 1.654477,-1.705451 2.045776,-2.540808 0.588075,-1.255434 1.809299,-4.564318 1.809299,-4.902263 0,-0.780413 1.537961,-0.842003 2.404884,-0.09631 0.591997,0.509219 0.485176,0.97198 -0.982192,4.255018 -1.32421,2.962747 -1.611322,3.924734 -1.287736,4.314635 0.223165,0.268895 0.727464,0.259713 1.325633,-0.02413 0.621298,-0.294831 2.264869,-1.937004 2.604042,-2.601844 0.380129,-0.745112 1.913551,-5.363858 1.913551,-5.763708 0,-0.856771 1.418862,-1.03355 2.305756,-0.287281 0.53531,0.450436 0.528105,0.777571 -0.05391,2.448081 -0.256034,0.734868 -0.45212,1.349521 -0.435744,1.365897 0.01638,0.01638 0.424565,-0.494439 0.90709,-1.135148 1.950747,-2.590244 3.545456,-3.53689 4.92798,-2.925334 0.745384,0.329719 1.066119,0.785541 1.146489,1.629388 0.0802,0.842249 -0.27461,1.870314 -1.467056,4.250668 -0.943442,1.88329 -1.132941,2.598223 -0.781762,2.949401 0.46826,0.46826 1.363596,-4.82e-4 2.700445,-1.413787 1.119149,-1.183162 1.384571,-1.663861 2.280183,-4.129622 0.447848,-1.232998 1.25196,-3.394621 1.786905,-4.803597 0.534953,-1.408976 1.044384,-2.906918 1.13206,-3.328761 0.08769,-0.421844 0.208421,-0.843416 0.268311,-0.936824 0.06695,-0.104403 0.418051,-0.169835 0.911357,-0.169835 0.708935,0 0.860147,0.05063 1.297368,0.434532 0.450804,0.395808 0.489235,0.484739 0.431381,0.998086 -0.0349,0.309958 -0.773833,2.330414 -1.641988,4.489895 -1.568107,3.900582 -1.574769,3.921883 -1.016255,3.24778 0.968987,-1.169523 2.611282,-2.714832 3.172728,-2.985383 0.788816,-0.38011 2.059337,-0.426394 2.587664,-0.09427 0.481803,0.302883 0.872267,1.033569 0.872267,1.632304 0,0.586544 -0.587099,2.144573 -1.492859,3.961697 -1.189214,2.385807 -1.299155,2.930017 -0.66093,3.271587 0.793236,0.424524 3.36134,-1.829463 3.841094,-3.371265 0.326134,-1.048114 1.182493,-2.680346 1.801102,-3.432889 1.291224,-1.570799 2.634138,-2.30975 4.197579,-2.30975 1.034467,0 1.663912,0.228191 2.07658,0.752815 0.28783,0.365911 0.303823,0.369737 0.494726,0.118365 0.108497,-0.142875 0.234854,-0.370732 0.280783,-0.506342 0.301575,-0.890396 2.233503,-0.120661 2.233503,0.889888 0,0.213777 -0.389243,1.318155 -0.864985,2.454172 -1.224336,2.923592 -1.44103,3.552336 -1.535368,4.454929 -0.09256,0.885543 0.04067,1.049515 0.715091,0.880239 0.365748,-0.0918 1.729737,-1.37397 2.466562,-2.318609 0.406552,-0.521223 0.433924,-0.533615 0.668647,-0.302682 0.235599,0.231802 0.232391,0.26475 -0.08608,0.883142 -0.464705,0.902355 -2.612931,3.012548 -3.530471,3.467959 -0.882594,0.438066 -1.666676,0.472872 -2.276483,0.10105 -0.620686,-0.378451 -0.85577,-0.922654 -0.85577,-1.981038 0,-0.902089 0,-0.902089 -0.526229,-0.236361 -1.708272,2.161134 -3.133232,2.887481 -4.444234,2.265372 -0.568979,-0.270002 -0.953141,-0.872561 -1.154306,-1.81052 -0.153956,-0.717917 -0.153956,-0.717917 -0.784928,-0.104957 -1.50259,1.4597 -3.131832,2.251589 -4.245394,2.063451 -0.668892,-0.113009 -1.40284,-0.797592 -1.528453,-1.42567 -0.228884,-1.144407 -0.03515,-1.908792 1.214886,-4.794337 0.90815,-2.096297 1.009811,-2.528478 0.662536,-2.816694 -0.309337,-0.256728 -0.758856,0.03384 -1.791621,1.158123 -1.751409,1.90659 -3.262416,4.521702 -3.807173,6.589124 -0.262597,0.996622 -0.373023,1.176928 -0.783877,1.280048 -0.435526,0.109312 -1.30122,-0.116102 -1.706625,-0.444378 -0.327779,-0.265425 -0.378725,-0.653593 -0.205934,-1.569259 0.100176,-0.530854 0.100176,-0.530854 -0.790719,0.285489 -2.241041,2.053506 -4.249682,2.338389 -5.082897,0.7209 -0.540379,-1.049011 -0.320645,-2.04303 1.146399,-5.185991 0.931971,-1.996629 1.086405,-2.742229 0.599982,-2.896617 -0.369824,-0.117375 -0.921582,0.321225 -1.953898,1.553186 -1.748165,2.086242 -3.114641,4.458898 -3.618448,6.282821 -0.150989,0.546633 -0.377984,1.070301 -0.504432,1.163711 -0.539731,0.398719 -1.967127,0.023 -2.247112,-0.591509 -0.09759,-0.214199 -0.09813,-0.481833 -0.0016,-0.861626 0.0769,-0.303004 0.112454,-0.550915 0.07897,-0.550915 -0.03348,0 -0.25625,0.18597 -0.49506,0.413273 -0.696195,0.662637 -1.975764,1.472771 -2.585505,1.636957 -0.726851,0.195717 -1.656018,0.08796 -2.110089,-0.244701 -0.497408,-0.364417 -0.833191,-1.084792 -0.833442,-1.788022 -2.11e-4,-0.593892 -2.11e-4,-0.593892 -0.931863,0.28498 -0.512412,0.483378 -1.323872,1.158756 -1.803243,1.500829 -0.6506,0.46426 -0.918039,0.753714 -1.054804,1.141634 -0.36776,1.043142 -1.647007,3.611093 -2.25295,4.522559 -0.744754,1.120278 -1.844797,2.158417 -2.743631,2.589247 -0.69849,0.334798 -1.968391,0.483019 -2.422817,0.282785 z m 1.252666,-1.504142 c 0.240604,-0.146705 0.628365,-0.528603 0.861692,-0.848667 0.48595,-0.666601 1.964523,-3.613471 1.863653,-3.714342 -0.03686,-0.03686 -0.454247,0.218044 -0.927524,0.566455 -1.874422,1.37987 -2.982555,2.686369 -2.982555,3.516452 0,0.760594 0.435355,0.937019 1.184734,0.480102 z m -0.73951,-8.438219 c 0.439977,-0.362666 1.321057,-1.474906 1.321057,-1.667644 0,-0.03667 -0.184327,-0.10711 -0.409621,-0.156592 -0.607993,-0.13354 -1.682619,-1.046813 -2.009744,-1.707992 -0.284997,-0.576032 -0.287883,-0.57767 -0.417473,-0.236818 -0.295811,0.778049 -0.59356,2.538224 -0.507212,2.998488 0.225172,1.200268 1.098238,1.532816 2.022993,0.770558 z m 46.455858,-0.935006 c 1.555618,-1.599654 3.407706,-4.913252 3.427718,-6.132575 0.03605,-2.198395 -2.407209,-0.799685 -3.889324,2.226533 -1.242245,2.536428 -1.491849,4.715601 -0.540137,4.715601 0.117958,0 0.568745,-0.364299 1.001743,-0.809559 z M 36.468632,36.775521 c 0.404606,-1.250627 0.519894,-3.557276 0.202043,-4.04238 -0.122294,-0.186648 -0.350418,-0.339357 -0.506942,-0.339357 -0.470326,0 -1.284732,0.937752 -1.529124,1.760718 -0.269509,0.907523 -0.270968,1.13671 -0.01278,2.006136 0.207487,0.698689 0.945322,1.531994 1.35648,1.531994 0.119146,0 0.30773,-0.35273 0.490315,-0.917111 z m -8.860118,9.021039 c -0.93476,-0.384525 -1.376671,-0.647995 -3.449971,-2.056914 -0.896729,-0.609374 -2.068827,-1.367355 -2.604662,-1.684406 -0.974248,-0.576453 -0.974248,-0.576453 -1.515327,-0.218384 -1.002924,0.663705 -2.82709,0.965976 -3.738457,0.619475 -1.184711,-0.450425 -1.302186,-2.050157 -0.199902,-2.722201 0.359888,-0.219415 0.685958,-0.2743 1.631994,-0.27471 1.182248,-5.09e-4 1.182248,-5.09e-4 2.130095,-1.936625 0.521316,-1.064863 1.358802,-3.067218 1.861082,-4.449671 1.635251,-4.500817 2.301105,-5.858605 3.517175,-7.172108 0.858342,-0.927107 1.844411,-1.504778 2.75139,-1.611841 1.818823,-0.214711 3.289088,1.083967 3.296687,2.911951 0.0055,1.316235 -0.824968,3.14534 -1.89183,4.166857 -0.496323,0.475229 -1.199394,0.539367 -1.63099,0.148776 -0.406961,-0.368293 -0.349632,-0.626859 0.349551,-1.576633 0.345427,-0.469226 0.803931,-1.224923 1.018903,-1.679328 0.63387,-1.339871 0.509162,-2.932143 -0.229649,-2.932143 -0.41582,0 -1.243927,0.965043 -1.812194,2.111853 -0.320557,0.646907 -1.190392,2.771976 -1.932978,4.722383 -1.700714,4.466951 -2.422305,6.176498 -3.08709,7.313726 -0.526603,0.900842 -0.526603,0.900842 2.138477,2.134302 4.218921,1.952611 4.291784,1.976089 6.197643,1.996707 1.630415,0.01767 1.630415,0.01767 1.671491,0.360206 0.05779,0.48195 -0.71465,1.444469 -1.467686,1.828858 -0.82803,0.422675 -1.976062,0.422624 -3.003752,-1.3e-4 z M 17.577547,40.97382 c 0.310436,-0.251377 0.310436,-0.251377 -0.04912,-0.32011 -0.394627,-0.07543 -0.925051,0.134865 -1.013049,0.401652 -0.08822,0.267445 0.706532,0.206433 1.062165,-0.08155 z m 77.639885,1.283632 c -2.405415,-1.061778 -1.242105,-6.746029 1.972021,-9.635806 1.595003,-1.434051 3.803257,-1.868142 4.882717,-0.959829 0.39159,0.329494 0.39159,0.329494 0.933,-1.065716 0.68586,-1.767405 1.38272,-3.956432 1.38543,-4.351963 0.003,-0.46196 0.18141,-0.652464 0.72531,-0.775133 0.93192,-0.210182 2.04621,0.242349 2.21072,0.897821 0.11251,0.448295 -0.27017,1.592138 -2.56186,7.657373 -1.50747,3.989708 -1.77347,4.808788 -1.78698,5.502651 -0.0151,0.776431 5e-4,0.817117 0.32876,0.8554 0.78518,0.09157 2.73863,-1.972412 3.18855,-3.368955 0.73863,-2.292666 2.34466,-4.366907 4.15433,-5.365436 0.63631,-0.351091 0.8776,-0.406437 1.77704,-0.407602 0.93991,-9.81e-4 1.09786,0.03857 1.6304,0.410834 0.7342,0.513203 1.33052,1.577055 1.43129,2.553449 0.20128,1.950289 -1.41521,5.537339 -3.1278,6.940677 -0.81795,0.670252 -2.00332,1.181246 -2.93644,1.265859 -1.50781,0.136724 -2.91958,-0.887403 -3.18678,-2.311764 -0.0823,-0.438713 -0.0823,-0.438713 -1.08617,0.529981 -1.70234,1.64267 -3.34952,2.181113 -4.39501,1.436653 -0.56318,-0.401009 -0.908742,-1.318186 -0.815298,-2.163865 0.07151,-0.646969 0.07151,-0.646969 -0.287856,-0.171433 -0.778469,1.030197 -1.853586,2.047417 -2.509293,2.374173 -0.762631,0.380037 -1.312225,0.423588 -1.926081,0.152631 z m 15.773498,-1.873774 c 1.60514,-1.479585 3.18718,-6.870321 2.30295,-7.847368 -0.3543,-0.391504 -0.8022,-0.346438 -1.35166,0.136 -0.57369,0.503693 -0.80715,1.151925 -0.80949,2.247558 -0.002,0.661244 0.074,0.956851 0.37443,1.469663 0.2069,0.353059 0.34257,0.729553 0.30147,0.836648 -0.17971,0.468321 -1.08912,0.02803 -1.61396,-0.781373 -0.34473,-0.531654 -0.34473,-0.531654 -0.6966,0.52792 -0.60999,1.836807 -0.63049,2.913488 -0.0691,3.62728 0.40296,0.512289 0.83655,0.452239 1.56186,-0.216328 z M 98.649481,39.293431 c 1.614239,-2.034901 3.157549,-4.907661 3.157549,-5.87757 0,-0.308067 -0.0734,-0.633495 -0.16305,-0.723164 -0.22202,-0.222024 -0.85594,-0.205166 -1.32059,0.03513 -1.396585,0.722199 -3.54348,4.788443 -3.54348,6.711387 0,1.401956 0.684111,1.348617 1.869571,-0.145767 z M 43.564375,29.750098 c -0.504658,-0.219523 -0.724001,-0.57048 -0.724001,-1.158432 0,-1.298954 1.522828,-2.069948 2.686774,-1.360289 0.601436,0.366692 0.769859,0.844298 0.545637,1.547323 -0.31935,1.001321 -1.441035,1.4357 -2.50841,0.971398 z m 5.902301,-0.06907 c -0.435241,-0.342361 -0.703055,-0.990039 -0.592125,-1.432001 0.13714,-0.546413 1.00035,-1.405751 1.589343,-1.582216 0.70153,-0.210183 1.476206,0.01956 1.945149,0.576873 0.388979,0.462268 0.415199,0.611727 0.204764,1.167121 -0.45915,1.211831 -2.28467,1.948635 -3.147131,1.270223 z"
       id="path4" /><circle
       style="opacity:1;fill:none;fill-opacity:1;stroke:#2a5c82;stroke-width:2.92123;stroke-linecap:round;stroke-linejoin:round;stroke-dasharray:none;stroke-dashoffset:0;stroke-opacity:1;paint-order:normal"
       id="path7"
       cx="66.145836"
       cy="66.145836"
       r="64.168785" /></g></svg>
