<?xml version="1.0" encoding="UTF-8" standalone="no"?>
<!-- Created with Inkscape (http://www.inkscape.org/) -->

<svg
   width="500"
   height="264"
   viewBox="0 0 132.29166 69.850313"
   version="1.1"
   id="svg1"
   xml:space="preserve"
   inkscape:export-filename="lojinha do pouso.svg"
   inkscape:export-xdpi="96"
   inkscape:export-ydpi="96"
   inkscape:version="1.4 (86a8ad7, 2024-10-11)"
   sodipodi:docname="pouso logo.svg"
   xmlns:inkscape="http://www.inkscape.org/namespaces/inkscape"
   xmlns:sodipodi="http://sodipodi.sourceforge.net/DTD/sodipodi-0.dtd"
   xmlns="http://www.w3.org/2000/svg"
   xmlns:svg="http://www.w3.org/2000/svg"><sodipodi:namedview
     id="namedview1"
     pagecolor="#ffffff"
     bordercolor="#000000"
     borderopacity="0.25"
     inkscape:showpageshadow="2"
     inkscape:pageopacity="0.0"
     inkscape:pagecheckerboard="0"
     inkscape:deskcolor="#d1d1d1"
     inkscape:document-units="mm"
     inkscape:zoom="1.0267829"
     inkscape:cx="414.88808"
     inkscape:cy="172.87003"
     inkscape:window-width="1920"
     inkscape:window-height="1017"
     inkscape:window-x="-8"
     inkscape:window-y="-8"
     inkscape:window-maximized="1"
     inkscape:current-layer="layer1" /><defs
     id="defs1"><linearGradient
       id="swatch9"
       inkscape:swatch="solid"><stop
         style="stop-color:#2a5c82;stop-opacity:1;"
         offset="0"
         id="stop9" /></linearGradient></defs><g
     inkscape:label="Camada 1"
     inkscape:groupmode="layer"
     id="layer1"
     transform="translate(0,-30.664271)"><g
       transform="matrix(0.04564025,0,0,-0.04564025,-3.9315852,137.73924)"
       fill="#000000"
       stroke="none"
       id="g30"><g
         id="g35"
         inkscape:label="P e O"><path
           d="m 203.33981,2237.0699 c -19.78632,-2.1261 -27.15821,-34.6875 -27.15821,-34.6875 l -1.8164,-22.8222 -4.57031,-555.1318 10.04882,-409.9658 8.21778,-29.209 43.81347,-11.8653 36.5332,32.8565 13.69629,379.8339 40.16601,-14.6044 145.18066,-11.8799 72.1289,46.5674 74.86816,92.2265 17.34375,23.7305 19.1748,-47.4756 41.99707,-91.3037 79.43847,-59.3555 110.47851,-8.2177 83.08593,52.0458 77.60739,132.3926 15.5274,90.3955 86.7334,158.877 5.4785,41.997 -27.3926,19.1748 -42.9053,4.5557 -25.5615,42.9199 -42.0117,75.7764 -65.72754,29.2236 -72.1289,-0.9082 -78.53027,-34.7021 -77.60742,-72.1289 -43.82812,-101.3526 -16.43555,108.6621 -59.34081,103.169 -80.34668,16.4355 -78.53027,-13.6963 -71.2207,-58.4326 -97.69042,-189.917 c 0,0 5.47839,221.8721 2.73926,267.5244 -2.73915,45.6523 -25.558,28.2967 -56.60156,45.6446 -3.88045,2.1684 -7.4521,3.3104 -10.72266,3.6474 -1.43086,0.1475 -2.81177,0.1418 -4.13085,0 z m 309.75584,-148.667 c 13.17382,1.0352 22.77831,-4.2773 35.90331,-17.4023 79,-79 32.00684,-335.0049 -72.99316,-400.0049 -18,-12 -48.00585,-20.9912 -66.00585,-20.9912 -38,0 -100.00683,26.9922 -107.00683,46.9922 -7,19 19.00781,117.0098 58.00781,215.0098 31,78 86.00292,152.9882 123.00292,167.9882 12,4.875 21.1875,7.7871 29.0918,8.4082 z m 398.5986,-16.0254 c 38.8125,-2.4375 65.80664,-43.1308 79.30664,-120.3808 10.00001,-53 9.00491,-65.9971 -4.99512,-86.9971 -13,-20 -24.99999,-25.0049 -59.99999,-25.0049 -50,0 -87.01269,24.0079 -113.01269,73.0079 l -15.9961,31.9921 -14.0039,-32.9882 c -12,-30 -11.98633,-37.0098 4.01367,-65.0098 26,-44 75.99999,-70.001 134.99999,-71.001 48,-1 47.99707,-0.9961 41.99707,-30.9961 -11,-56 -57.00195,-118.0039 -97.00195,-134.0039 -35,-13 -39.99511,-12.9941 -64.99511,6.0059 -48,36 -66.00586,79.998 -66.00586,157.998 0,127 55.99316,248.0069 132.99316,287.0069 15.5,7.75 29.76269,11.1835 42.70019,10.371 z"
           style="display:inline;opacity:1;fill:#008bc9;fill-rule:evenodd;stroke:#2a5c82;stroke-width:0.9975;stroke-linecap:round;stroke-linejoin:round"
           id="path34" /><path
           d="m 180,2230 c -19,-19 -20,-33 -20,-525 0,-492 1,-506 20,-525 27,-27 56,-25 85,5 25,24 25,26 25,206 0,168 1,181 18,174 9,-4 40,-11 67,-17 77,-16 128,2 193,68 28,29 52,60 52,69 0,31 18,14 24,-23 13,-87 102,-162 191,-162 113,0 202,98 241,266 8,38 24,78 34,89 23,25 60,99 60,120 0,22 -37,55 -62,55 -18,1 -29,13 -47,51 -25,54 -72,92 -128,104 -71,14 -171,-40 -223,-121 l -29,-46 -10,39 c -54,195 -257,186 -361,-17 -11,-22 -22,-40 -23,-40 -2,0 -1,44 1,98 4,88 2,100 -18,125 -26,32 -62,35 -90,7 z m 68,-22 c 8,-8 12,-59 12,-164 0,-84 4,-155 9,-158 4,-3 14,14 21,37 29,98 101,201 161,233 16,8 46,14 68,14 76,0 128,-73 140,-200 l 6,-65 17,47 c 36,103 121,190 198,203 83,14 165,-53 177,-145 6,-41 17,-51 27,-25 6,17 42,20 51,4 11,-17 -2,-53 -39,-106 -18,-27 -37,-64 -40,-83 -35,-173 -117,-274 -222,-272 -81,1 -143,55 -170,149 -10,36 -14,72 -10,100 4,28 2,42 -4,38 -6,-3 -10,-12 -10,-18 0,-7 -13,-39 -29,-72 -33,-72 -107,-141 -158,-151 -42,-8 -105,2 -144,22 -16,8 -34,12 -39,9 -6,-4 -10,-85 -10,-199 0,-136 -3,-195 -12,-204 -14,-14 -44,-16 -53,-3 -11,19 -17,965 -6,994 11,29 38,36 59,15 z"
           id="path1"
           style="display:inline" /><path
           d="m 513.09565,2088.4029 c -7.9043,-0.6211 -17.0918,-3.5332 -29.0918,-8.4082 -37,-15 -92.00292,-89.9882 -123.00292,-167.9882 -39,-98 -65.00781,-196.0098 -58.00781,-215.0098 7,-20 69.00683,-46.9922 107.00683,-46.9922 18,0 48.00585,8.9912 66.00585,20.9912 105,65 151.99316,321.0049 72.99316,400.0049 -13.125,13.125 -22.72949,18.4375 -35.90331,17.4023 z m -7.60254,-29.5312 c 16.49652,0.9047 30.82617,-10.5615 41.51367,-35.874 22,-53 12.99316,-170.9961 -17.00684,-240.9961 -39,-90 -103.00487,-123 -175.00487,-90 -32,15 -31.99414,30.0019 6.00586,142.0019 46,139.4375 102.3344,222.5561 144.49218,224.8682 z"
           style="display:inline"
           id="path33" /><path
           d="m 911.69425,2072.3775 c -12.9375,0.8125 -27.20019,-2.621 -42.70019,-10.371 -77,-39 -132.99316,-160.0069 -132.99316,-287.0069 0,-78 18.00586,-121.998 66.00586,-157.998 25,-19 29.99511,-19.0059 64.99511,-6.0059 40,16 86.00195,78.0039 97.00195,134.0039 6,30 6.00293,29.9961 -41.99707,30.9961 -59,1 -108.99999,27.001 -134.99999,71.001 -16,28 -16.01367,35.0098 -4.01367,65.0098 l 14.0039,32.9882 15.9961,-31.9921 c 26,-49 63.01269,-73.0079 113.01269,-73.0079 35,0 46.99999,5.0049 59.99999,25.0049 14.00003,21 14.99513,33.9971 4.99512,86.9971 -13.5,77.25 -40.49414,117.9433 -79.30664,120.3808 z m -11.6748,-25.3857 c 14.57031,1.6797 26.61132,-6.9971 40.98632,-26.9971 11,-14 21.99024,-51.0009 24.99024,-86.0009 6,-60 6.00488,-60.9981 -19.99512,-67.9981 -52,-13 -116.00097,41.0088 -116.00097,99.0088 0,35 6.00488,44.998 40.00488,67.998 11.625,8.25 21.27246,12.9815 30.01465,13.9893 z M 764.82903,1826.4596 c 2.66601,-0.1992 6.79394,-5.2119 13.16894,-13.4619 9,-11 33.00195,-30.9971 52.00195,-41.9971 19,-12 51.99316,-21.0058 72.99316,-21.0058 20,0 37.00195,-1.9952 37.00195,-4.9952 0,-19 -43.99511,-87.0009 -64.99511,-101.0009 -59,-39 -115.00488,26.996 -115.00488,135.996 0,33.75 0.39063,46.7969 4.83399,46.4649 z"
           style="display:inline"
           id="path35" /></g><g
         id="g36"
         inkscape:label="U sorriso"
         style="display:inline"><path
           d="m 1763.911,1920.1656 c -5.707,0.7032 -11.6543,-1.538 -16.9043,-7.163 -4,-3 -7.002,-40.002 -7.002,-82.002 0,-194 -98.0048,-320.0058 -250.0048,-321.0058 -106,0 -200.0049,67.999 -235.0049,168.999 -9,26 -15,79.0019 -15,127.0019 0,85 -9.0019,105.9981 -37.0019,82.9981 -12,-11 -13.9864,-30.9991 -10.9864,-108.9991 6,-144 49.9873,-224.9882 156.9873,-287.9882 34,-20 61.0069,-26 122.0069,-30 74,-4 83.9941,-2.0029 143.9941,26.9971 75,37 117.001,83.0009 146.001,161.0009 22,58 36.0048,198.999 25.0048,243.999 -3.75,15.625 -12.5781,24.9903 -22.0898,26.1621 z"
           style="display:inline;opacity:1;fill:#e83629;fill-rule:evenodd;stroke:#2a5c82;stroke-width:1.13267;stroke-linecap:round;stroke-linejoin:round"
           id="path63" /><path
           d="m 1727,1932 c -11,-12 -16,-37 -15,-94 0,-119 -24,-192 -80,-246 -81,-75 -224,-71 -299,10 -46,48 -67,116 -66,210 1,73 -2,89 -17,103 -13,12 -28,15 -44,11 -35,-9 -50,-68 -43,-168 12,-181 131,-313 294,-326 158,-12 286,75 340,232 25,75 25,236 -1,265 -23,26 -48,27 -69,3 z m 59,-38 c 11,-45 -3,-186 -25,-244 -29,-78 -71,-124 -146,-161 -60,-29 -70,-31 -144,-27 -61,4 -88,10 -122,30 -107,63 -151,144 -157,288 -3,78 -1,98 11,109 28,23 37,2 37,-83 0,-48 6,-101 15,-127 35,-101 129,-169 235,-169 152,1 250,127 250,321 0,42 3,79 7,82 14,15 33,6 39,-19 z"
           id="path9"
           transform="translate(-1.8897637e-6,-2.7165352e-5)"
           style="display:inline" /><path
           d="m 1632.0018,2209.3697 c -17.5,0.375 -34.5,-5.373 -45,-17.373 -23,-25 -22.0039,-85 0.9961,-105 27,-25 78.0059,-21.9903 96.0059,5.0097 22,31 20.001,73.9981 -3.999,97.9981 -12.5,12.5 -30.503,18.9902 -48.003,19.3652 z"
           style="display:inline;opacity:1;fill:#e83629;fill-rule:evenodd;stroke:#2a5c82;stroke-width:0.9975;stroke-linecap:round;stroke-linejoin:round"
           id="path60"
           transform="translate(-1.8897637e-6,-2.7165352e-5)" /><path
           d="m 1569,2211 c -62,-62 -20,-171 66,-171 48,0 95,44 95,90 0,98 -96,146 -161,81 z m 111,-21 c 24,-24 26,-67 4,-98 -18,-27 -69,-30 -96,-5 -23,20 -24,80 -1,105 21,24 68,23 93,-2 z"
           id="path4"
           style="display:inline" /><path
           d="m 1314.995,2199.9947 c -62,0 -88.9941,-89.9941 -38.9941,-128.9941 15,-12 31.9941,-21.0059 38.9941,-21.0059 7,0 24.0088,9.0059 39.0088,21.0059 33,26 35.9912,78.999 5.9912,108.999 -11,11 -31,19.9951 -45,19.9951 z"
           style="display:inline;opacity:1;fill:#e83629;fill-rule:evenodd;stroke:#2a5c82;stroke-width:0.9975;stroke-linecap:round;stroke-linejoin:round"
           id="path59"
           transform="translate(-1.8897637e-6,-2.7165352e-5)" /><path
           d="m 1315.1415,2230.3463 c -22.4915,-0.1819 -45.8252,-9.3408 -66.1377,-29.3408 -40,-41 -41,-98.0127 0,-143.0127 22,-25 35.9912,-31.9922 65.9912,-31.9922 47,0 95.0098,47.9951 95.0098,94.9951 0,66.6875 -45.3821,109.7507 -94.8633,109.3506 z m -0.1465,-30.3516 c 14,0 34,-8.9951 45,-19.9951 30,-30 27.0088,-82.999 -5.9912,-108.999 -15,-12 -32.0088,-21.0059 -39.0088,-21.0059 -7,0 -23.9941,9.0059 -38.9941,21.0059 -50,39 -23.0059,128.9941 38.9941,128.9941 z"
           style="display:inline"
           id="path62" /></g><g
         id="g64"
         inkscape:label="S e O"><path
           d="m 2075.4393,2167.1822 c -130.5176,-3.6804 -225.4394,-75.747 -225.4394,-174.1845 0,-73 50.9951,-124.9942 154.9951,-158.9942 62,-21 117.999,-48.0087 138.999,-69.0087 44,-44 -2.9902,-122.9903 -84.9902,-144.9903 -36,-10 -53.0088,-9.0049 -99.0088,4.9951 -94,28 -106.9893,29.002 -118.9893,7.002 -27,-50 89.9932,-110.0088 192.9932,-99.0088 107,11 206.0009,87.0088 206.0009,159.0088 0,15 5.0049,27.9932 10.0049,27.9932 6,0 9.9902,-7.9922 9.9902,-16.9922 0,-44 80.0049,-134.0039 145.0049,-164.0039 60,-28 149.0029,-24.9981 213.0029,7.0019 58,29 91.9981,64.9961 127.9981,135.9961 14,27 42.9951,65.0049 64.9951,85.0049 45,41 94.0088,116.9931 84.0088,132.9931 -11,18 -24.999,11.004 -63.999,-30.996 l -38.0127,-41.9971 -4.9952,85.0049 c -9,135 -51.0039,211.999 -134.0039,243.999 -52,20 -96.9892,12.998 -148.9892,-22.002 -27,-18 -41.0029,-22 -48.0029,-15 -6,6 -26.0039,11.001 -44.0039,11.001 -73,0 -146.0029,-115.0049 -168.0029,-265.0049 -10,-71 -12.9981,-77.9931 -22.9981,-57.9931 -17,30 -83.9902,67.9941 -174.9902,98.9941 -41,14 -84.0059,34 -96.0059,45 -42,40 -17.0039,90.999 60.9961,123.999 47,19 83.0059,19.0039 141.0059,-0.9961 39,-13 50.0029,-14.0029 63.0029,-3.0029 21,18 14.001,48.9932 -18.999,72.9932 -20,15 -46.0098,21.0126 -95.0098,23.0126 -9,0.375 -17.8564,0.4212 -26.5576,0.1758 z m 530.7861,-86.3525 c 58.2187,-2.5781 103.7695,-77.5752 103.7695,-190.8252 0,-96 -8.9941,-110.0098 -68.9941,-110.0098 -142,0 -207.0059,190.9981 -96.0059,277.9981 21,16.5 41.8242,23.6963 61.2305,22.8369 z m -179.2236,-21.958 c 6.5,-0.375 5.497,-12.374 -3.003,-35.874 -38,-107 14.9952,-251 109.9952,-300 17,-9 55.0048,-19.002 85.0048,-22.002 l 53.9942,-5.9912 -40.9864,-42.0117 c -72,-74 -162.0038,-77.9902 -239.0038,-9.9902 -52,45 -73.0079,98.0029 -73.0079,183.0029 0,87 22.0098,153.999 65.0098,198.999 21.5,23 35.4971,34.2422 41.9971,33.8672 z"
           style="display:inline;opacity:1;fill:#008bc9;fill-rule:evenodd;stroke:#2a5c82;stroke-width:0.9975;stroke-linecap:round;stroke-linejoin:round"
           id="path65" /><path
           d="m 1983,2182 c -109,-39 -169,-115 -161,-203 8,-83 70,-140 193,-179 62,-20 112,-47 119,-66 9,-24 -20,-63 -59,-80 -47,-19 -92,-17 -144,6 -24,11 -53,20 -66,20 -53,0 -74,-78 -32,-118 52,-49 206,-72 282,-43 47,19 103,61 123,93 l 19,29 16,-25 c 25,-37 67,-75 112,-99 55,-30 182,-31 240,-2 53,26 116,90 143,145 12,25 46,71 75,102 30,31 62,73 71,93 16,33 16,38 2,61 -20,29 -43,31 -72,3 l -22,-20 -7,56 c -4,32 -20,83 -38,118 -57,109 -163,149 -263,100 -27,-14 -52,-18 -81,-15 -53,5 -101,-22 -142,-82 -34,-49 -71,-151 -71,-195 v -30 l -35,24 c -20,13 -57,31 -83,41 -85,31 -152,63 -152,73 0,15 31,43 67,57 43,18 88,18 140,-2 39,-15 44,-15 68,0 52,34 39,98 -28,132 -48,26 -151,28 -214,6 z m 214,-38 c 33,-24 40,-55 19,-73 -13,-11 -24,-10 -63,3 -58,20 -94,20 -141,1 -78,-33 -103,-84 -61,-124 12,-11 55,-31 96,-45 91,-31 158,-69 175,-99 10,-20 13,-13 23,58 22,150 95,265 168,265 18,0 38,-5 44,-11 7,-7 21,-3 48,15 52,35 97,42 149,22 83,-32 125,-109 134,-244 l 5,-85 38,42 c 39,42 53,49 64,31 10,-16 -39,-92 -84,-133 -22,-20 -51,-58 -65,-85 -36,-71 -70,-107 -128,-136 -64,-32 -153,-35 -213,-7 -65,30 -145,120 -145,164 0,9 -4,17 -10,17 -5,0 -10,-13 -10,-28 0,-72 -99,-148 -206,-159 -103,-11 -220,49 -193,99 12,22 25,21 119,-7 46,-14 63,-15 99,-5 82,22 129,101 85,145 -21,21 -77,48 -139,69 -104,34 -155,86 -155,159 0,105 108,180 252,174 49,-2 75,-8 95,-23 z"
           id="path6"
           style="display:inline" /><path
           d="m 2545,2058 c -111,-87 -46,-278 96,-278 60,0 69,14 69,110 0,151 -81,234 -165,168 z m 98,-24 c 47,-46 62,-215 21,-231 -25,-9 -88,14 -115,43 -20,22 -24,35 -24,91 0,60 2,67 33,94 40,36 52,36 85,3 z"
           id="path7-1"
           style="display:inline" /><path
           d="m 2385,2025 c -43,-45 -65,-112 -65,-199 0,-85 21,-138 73,-183 77,-68 167,-64 239,10 l 41,42 -54,6 c -30,3 -68,13 -85,22 -95,49 -148,193 -110,300 17,47 4,48 -39,2 z m 32,-220 c 36,-68 112,-125 168,-125 31,0 32,-15 2,-35 -61,-40 -135,-27 -190,35 -60,66 -70,180 -26,285 12,29 13,27 19,-45 4,-46 14,-90 27,-115 z"
           id="path8"
           style="display:inline" /></g><path
         d="m 850,978.96942 v -96 h 46 c 57,0 82,13 99,53 29,68.99998 -11,126.99998 -95,134.99998 l -50,5 z m 91,43.99998 c 28,-15 26,-73.99998 -3,-93.99998 -40,-28 -48,-21 -48,44 0,63.99998 9,71.99998 51,49.99998 z"
         id="path22"
         style="fill:#e73427;fill-opacity:1" /><path
         d="m 1040,977.96942 v -95 h 50 c 44,0 50,2 50,21 0,18 -5,21 -30,17 -26,-4 -30,-1 -30,18 0,21 4,23 30,18 26,-6 30,-4 30,15 0,17 -6,21 -30,21 -23,0 -30,4 -30,19.99998 0,16 7,20 30,20 23,0 30,4 30,20 0,17 -7,20 -50,20 h -50 z"
         id="path23"
         style="fill:#e73427;fill-opacity:1" /><path
         d="m 1196,1056.9694 c -9,-8 -16,-29 -16,-45 0,-24.99998 6,-32.99998 34,-43.99998 41,-17 48,-26 36,-45 -7,-11 -14,-11 -33,-3 -18,9 -27,9 -36,0 -17,-17 -14,-23 18,-37 36,-15 67,-6 87,25 21,33 10,63 -32,82 -43,20.99998 -47,47.99998 -5,39.99998 21,-5 31,-2 35,10 13,33 -59,46 -88,17 z"
         id="path24"
         style="fill:#e73427;fill-opacity:1" /><path
         d="m 1330,977.96942 v -95 h 51 c 43,0 55,5 80,29 68,68 12,160.99998 -97,160.99998 h -34 z m 85,48.99998 c 25,-10 37,-49.99998 23,-78.99998 -6,-14 -14,-25 -17,-25 -3,0 -16,-3 -28,-6 -22,-6 -23,-4 -23,55 0,62.99998 6,69.99998 45,54.99998 z"
         id="path25"
         style="fill:#e73427;fill-opacity:1" /><path
         d="m 1520,977.96942 v -95 h 54 c 50,0 54,2 49,21 -5,16 -12,20 -34,17 -25,-4 -29,-1 -29,18 0,21 4,23 30,18 26,-6 30,-4 30,15 0,17 -6,21 -30,21 -23,0 -30,4 -30,19.99998 0,16 7,20 34,20 29,0 33,3 29,20 -4,17 -14,20 -54,20 h -49 z"
         id="path26"
         style="fill:#e73427;fill-opacity:1" /><path
         d="m 1698,1051.9694 c -16,-11 -28,-27 -28,-35 0,-16.99998 12,-17.99998 28,-2 9,9 12,-4 12,-59.99998 0,-65 2,-72 20,-72 19,0 20,7 20,95 0,103.99998 -4,109.99998 -52,73.99998 z"
         id="path27"
         style="fill:#e73427;fill-opacity:1" /><path
         d="m 1827,1061.9694 c -26,-15 -38,-54 -27,-83.99998 11,-30 50,-41 81,-24 23,12 23,12 7,-12 -11,-17 -25,-24 -46,-23 -29,2 -51,-20 -37,-34 13,-13 75,-5 94,12 79,72 16,215.99998 -72,164.99998 z m 61,-74.99998 c -12,-13 -20,-14 -37,-5 -26,14 -27,35.99998 -3,49.99998 13,7 22,5 37,-9 18,-18 18,-21 3,-35.99998 z"
         id="path28"
         style="fill:#e73427;fill-opacity:1" /><path
         d="m 1986,1056.9694 c -18,-18 -21,-55 -6,-69.99998 8,-8 6,-15 -5,-24 -18,-15 -20,-54 -2,-68 61,-49 163,12 113,67 -12,13 -14,21 -7,26 16,9 13,50.99998 -5,68.99998 -8,9 -28,16 -44,16 -16,0 -36,-7 -44,-16 z m 61,-25 c 15,-15 5,-38.99998 -17,-38.99998 -22,0 -32,23.99998 -17,38.99998 6,6 14,11 17,11 3,0 11,-5 17,-11 z m 8,-93.99998 c 0,-22 -31,-33 -47,-17 -17,17 -1,44 24,40 15,-2 23,-10 23,-23 z"
         id="path29"
         style="fill:#e73427;fill-opacity:1" /><path
         d="m 2145,1059.9694 c -27,-21 -10,-37 31,-30 32,5 36,4 32,-13 -2,-11 -13,-19.99998 -26,-21.99998 -23,-4 -31,-30 -9,-36 52,-16 52,-16 34,-33 -13,-14 -21,-14 -42,-5 -21,10 -27,9 -32,-4 -16,-42 76,-55 108,-15 24,29 24,36 -1,61 -11,11 -16,20 -10,20 5,0 12,11 16,24.99998 13,51 -55,85 -101,52 z"
         id="path30"
         style="fill:#e73427;fill-opacity:1" /><text
         xml:space="preserve"
         style="font-size:15.0741px;text-align:start;writing-mode:lr-tb;direction:ltr;text-anchor:start;opacity:1;fill:#008bc9;fill-opacity:1;fill-rule:evenodd;stroke:none;stroke-width:0.16707;stroke-linecap:round;stroke-linejoin:round;stroke-dasharray:none;stroke-dashoffset:0;stroke-opacity:1;paint-order:normal"
         x="18.366016"
         y="86.963341"
         id="text68"
         transform="matrix(21.297563,0,0,-21.297563,126.62516,2963.4998)"><tspan
           sodipodi:role="line"
           id="tspan68"
           style="font-style:normal;font-variant:normal;font-weight:bold;font-stretch:normal;font-family:Carlito;-inkscape-font-specification:'Carlito Bold';fill:#000000;fill-opacity:1;stroke:none;stroke-width:0.16707"
           x="18.366016"
           y="86.963341">OBRAS SOCIAIS</tspan></text></g></g></svg>
