<?xml version="1.0" encoding="UTF-8" standalone="no"?>
<!-- Created with Inkscape (http://www.inkscape.org/) -->

<svg
   width="500"
   height="500"
   viewBox="0 0 132.29166 132.29167"
   version="1.1"
   id="svg1"
   xml:space="preserve"
   inkscape:export-filename="lojinha do pouso.svg"
   inkscape:export-xdpi="96"
   inkscape:export-ydpi="96"
   inkscape:version="1.4 (86a8ad7, 2024-10-11)"
   sodipodi:docname="ícone telefone.svg"
   xmlns:inkscape="http://www.inkscape.org/namespaces/inkscape"
   xmlns:sodipodi="http://sodipodi.sourceforge.net/DTD/sodipodi-0.dtd"
   xmlns="http://www.w3.org/2000/svg"
   xmlns:svg="http://www.w3.org/2000/svg"><sodipodi:namedview
     id="namedview1"
     pagecolor="#ffffff"
     bordercolor="#000000"
     borderopacity="0.25"
     inkscape:showpageshadow="2"
     inkscape:pageopacity="0.0"
     inkscape:pagecheckerboard="0"
     inkscape:deskcolor="#d1d1d1"
     inkscape:document-units="mm"
     inkscape:zoom="1.4520903"
     inkscape:cx="207.28738"
     inkscape:cy="255.14942"
     inkscape:window-width="1920"
     inkscape:window-height="1017"
     inkscape:window-x="-8"
     inkscape:window-y="-8"
     inkscape:window-maximized="1"
     inkscape:current-layer="layer1" /><defs
     id="defs1"><linearGradient
       id="swatch9"
       inkscape:swatch="solid"><stop
         style="stop-color:#2a5c82;stop-opacity:1;"
         offset="0"
         id="stop9" /></linearGradient></defs><g
     inkscape:label="Camada 1"
     inkscape:groupmode="layer"
     id="layer1"><circle
       style="display:inline;opacity:1;fill:none;fill-opacity:1;stroke:#2a5c82;stroke-width:2.92123;stroke-linecap:round;stroke-linejoin:round;stroke-dasharray:none;stroke-dashoffset:0;stroke-opacity:1;paint-order:normal"
       id="path7"
       cx="66.145836"
       cy="66.145836"
       r="64.168785"
       inkscape:label="Círculos" /><path
       style="fill:#6e0f0d;stroke-width:0.147809;fill-opacity:1"
       d="m 63.883007,113.03901 c -7.85052,-0.39787 -15.21449,-2.63368 -21.91987,-6.65521 -6.49871,-3.89757 -12.14594,-9.544797 -16.04352,-16.043507 -1.29269,-2.15541 -2.44663,-4.47639 -3.36312,-6.76447 -2.63999,-6.59091 -3.73199,-13.69711 -3.21533,-20.9238 0.51761,-7.24007 2.77979,-14.3542 6.57845,-20.68798 3.89803,-6.49947 9.54404,-12.14548 16.04352,-16.04352 2.15541,-1.29269 4.47639,-2.44663 6.76446,-3.36312 6.59092,-2.63999 13.69712,-3.73199 20.92381,-3.21533 7.24006,0.51761 14.3542,2.77979 20.68798,6.57845 6.49871,3.89758 12.145933,9.54481 16.043503,16.04352 1.2927,2.15541 2.44663,4.47639 3.36312,6.76447 1.74339,4.35248 2.81898,8.95451 3.19479,13.66931 0.11524,1.44569 0.15046,2.65062 0.12801,4.38007 -0.0227,1.75283 -0.0496,2.29781 -0.18622,3.77389 -0.64788,7.00164 -2.84786,13.69954 -6.4997,19.78851 -4.83272,8.05796 -12.208143,14.641767 -20.755983,18.528227 -5.52021,2.50988 -11.13976,3.86376 -17.32472,4.17392 -0.87663,0.044 -3.52463,0.0419 -4.41918,-0.003 z m 14.11987,-10.72419 c 0.4796,-0.12439 0.80149,-0.26284 1.57791,-0.67872 2.918,-1.56295 5.49797,-3.618587 7.57541,-6.035817 0.9842,-1.14518 1.25835,-1.56269 1.40653,-2.1421 0.0944,-0.36903 0.10047,-0.97594 0.0134,-1.33599 -0.0863,-0.35679 -0.33138,-0.83719 -0.57411,-1.12527 -0.29347,-0.34831 -11.50842,-10.29241 -11.90768,-10.55834 -0.37515,-0.24987 -0.79513,-0.43572 -1.26218,-0.55854 -0.40215,-0.10576 -1.21679,-0.14831 -1.62194,-0.0847 -0.15057,0.0236 -1.68092,0.41289 -3.40079,0.86502 -1.71987,0.45214 -3.14739,0.82206 -3.17228,0.82206 -0.0586,0 -1.4422,-1.33924 -2.34451,-2.26928 -5.17547,-5.33454 -9.4418,-11.90361 -12.18454,-18.76109 l -0.19168,-0.47927 1.83362,-2.51646 c 1.0085,-1.38405 1.9062,-2.62276 1.99489,-2.75269 0.69847,-1.02326 0.89037,-2.41918 0.49605,-3.60825 -0.32685,-0.98561 -5.31557,-14.39057 -5.4249,-14.57699 -0.16881,-0.28786 -0.69304,-0.8128 -0.9792,-0.98053 -0.5125,-0.30041 -1.18274,-0.44053 -1.73655,-0.36306 -0.36165,0.0506 -1.31566,0.33605 -2.11788,0.63371 -3.14586,1.16726 -5.92185,2.82963 -8.43848,5.0533 -0.70986,0.62724 -1.09555,1.15013 -1.36424,1.84959 -0.30207,0.78633 -0.33303,1.34508 -0.16449,2.9679 1.07743,10.37411 4.32839,20.20597 9.61025,29.06429 6.66063,11.17066 16.10369,20.15924 27.64339,26.312957 1.76481,0.94111 2.46845,1.24542 3.1153,1.3473 0.40328,0.0635 1.1994,0.0197 1.61871,-0.089 z m 2.12777,-34.462687 c 0.72232,-0.18814 1.27571,-0.79388 1.39344,-1.52524 0.0362,-0.22508 0.0325,-0.35644 -0.0205,-0.72349 -0.47383,-3.2794 -1.8424,-6.44625 -3.90917,-9.04575 -1.45347,-1.82811 -3.25659,-3.38778 -5.27138,-4.55967 -0.53617,-0.31186 -0.76408,-0.39702 -1.13116,-0.42264 -1.25978,-0.088 -2.2484,1.09367 -1.93185,2.30899 0.14831,0.56939 0.42373,0.89434 1.09042,1.28648 2.67241,1.57189 4.66299,3.6802 6.00469,6.35983 0.69935,1.39674 1.13867,2.75623 1.41243,4.37082 0.14045,0.82836 0.24054,1.07962 0.56595,1.42078 0.46911,0.49181 1.1606,0.69569 1.79716,0.52989 z m 13.37613,-1.87197 c 0.55875,-0.27615 0.95261,-0.81152 1.04248,-1.41703 0.0351,-0.23656 0.0263,-0.37372 -0.0628,-0.97585 -0.8258,-5.58396 -3.13643,-10.87152 -6.6892,-15.30735 -0.80773,-1.00848 -1.32951,-1.58774 -2.3444,-2.60263 -1.6472,-1.6472 -3.05782,-2.80118 -4.96866,-4.06468 -1.30264,-0.86135 -2.22352,-1.38811 -2.60066,-1.48762 -0.84293,-0.22243 -1.72993,0.19689 -2.12992,1.00687 -0.13297,0.26928 -0.15123,0.34245 -0.16868,0.67608 -0.0423,0.80932 0.28576,1.3774 1.04944,1.81709 1.87851,1.08154 3.34694,2.11917 4.80796,3.39744 5.00429,4.37833 8.34433,10.45849 9.32702,16.97876 0.0567,0.37641 0.1358,0.78492 0.17571,0.9078 0.17727,0.54583 0.64152,0.99438 1.23234,1.19065 0.10346,0.0344 0.30445,0.0479 0.59352,0.04 0.41541,-0.0113 0.45189,-0.0192 0.73581,-0.15957 z"
       id="path6" /></g></svg>
