<?xml version="1.0" encoding="UTF-8" standalone="no"?>
<!-- Created with Inkscape (http://www.inkscape.org/) -->

<svg
   width="500"
   height="500"
   viewBox="0 0 132.29166 132.29167"
   version="1.1"
   id="svg1"
   xml:space="preserve"
   inkscape:export-filename="lojinha do pouso.svg"
   inkscape:export-xdpi="96"
   inkscape:export-ydpi="96"
   inkscape:version="1.4 (86a8ad7, 2024-10-11)"
   sodipodi:docname="ícone microfone.svg"
   xmlns:inkscape="http://www.inkscape.org/namespaces/inkscape"
   xmlns:sodipodi="http://sodipodi.sourceforge.net/DTD/sodipodi-0.dtd"
   xmlns="http://www.w3.org/2000/svg"
   xmlns:svg="http://www.w3.org/2000/svg"><sodipodi:namedview
     id="namedview1"
     pagecolor="#ffffff"
     bordercolor="#000000"
     borderopacity="0.25"
     inkscape:showpageshadow="2"
     inkscape:pageopacity="0.0"
     inkscape:pagecheckerboard="0"
     inkscape:deskcolor="#d1d1d1"
     inkscape:document-units="mm"
     inkscape:zoom="1.4520903"
     inkscape:cx="194.2028"
     inkscape:cy="224.84828"
     inkscape:window-width="1920"
     inkscape:window-height="1017"
     inkscape:window-x="-8"
     inkscape:window-y="-8"
     inkscape:window-maximized="1"
     inkscape:current-layer="layer1" /><defs
     id="defs1"><linearGradient
       id="swatch9"
       inkscape:swatch="solid"><stop
         style="stop-color:#2a5c82;stop-opacity:1;"
         offset="0"
         id="stop9" /></linearGradient></defs><g
     inkscape:label="Camada 1"
     inkscape:groupmode="layer"
     id="layer1"><circle
       style="display:inline;opacity:1;fill:none;fill-opacity:1;stroke:#2a5c82;stroke-width:2.92123;stroke-linecap:round;stroke-linejoin:round;stroke-dasharray:none;stroke-dashoffset:0;stroke-opacity:1;paint-order:normal"
       id="path7"
       cx="66.145836"
       cy="66.145836"
       r="64.168785"
       inkscape:label="Círculos" /><path
       style="fill:#6e0f0d;fill-opacity:1"
       d="m 63.916047,110.58869 c -5.94499,-0.49683 -10.517289,-1.67645 -11.631759,-3.00093 -0.551116,-0.65496 -0.539245,-0.86612 0.08891,-1.58155 1.247212,-1.4205 5.885609,-2.52185 12.677843,-3.01025 l 1.611264,-0.11586 V 88.642587 74.405076 l -0.757636,-0.289344 c -0.416699,-0.159139 -1.077408,-0.563056 -1.46824,-0.897594 l -0.710604,-0.608251 -2.4946,2.055805 c -3.317821,2.734224 -4.319482,3.459639 -5.599992,4.05558 -3.035679,1.412786 -6.650776,1.416586 -8.627451,0.0091 l -0.504873,-0.359502 -0.444052,0.649863 c -1.342039,1.964052 -1.770041,3.460397 -1.653266,5.780012 0.109887,2.182791 0.573103,2.898066 3.361015,5.189919 3.753922,3.085977 5.03351,4.845837 5.48964,7.550081 0.555787,3.295075 -0.517727,5.541365 -3.325649,6.958795 -3.227684,1.62933 -9.633632,1.95727 -16.784982,0.85926 -2.374429,-0.36456 -2.969635,-0.60731 -3.241338,-1.32195 -0.626784,-1.64856 0.61243,-2.8365 2.582878,-2.47599 1.387652,0.25389 3.597137,0.491 6.220757,0.66761 4.43682,0.29865 8.461618,-0.21001 10.031208,-1.26775 0.850954,-0.57346 1.064576,-1.078718 0.95498,-2.258719 -0.193676,-2.085292 -0.890692,-3.097117 -3.747581,-5.440195 -2.624958,-2.152859 -3.278933,-2.819597 -4.08631,-4.166058 -0.905279,-1.509732 -1.186029,-2.665955 -1.1688,-4.813514 0.01721,-2.145066 0.420023,-3.94521 1.251915,-5.594689 0.567361,-1.124967 1.734298,-2.752709 2.405338,-3.355169 0.317865,-0.285378 0.369606,-0.525708 0.369606,-1.716764 0,-2.450044 0.813646,-4.691191 2.49114,-6.861719 0.507,-0.656013 2.153912,-2.703306 3.659806,-4.549541 l 2.737987,-3.356791 -0.291584,-0.562502 c -0.426065,-0.821931 -0.39063,-2.314561 0.07618,-3.208819 0.70097,-1.342842 2.03027,-2.038297 3.714998,-1.943589 l 1.084155,0.06095 6.59739,-8.099871 c 3.628564,-4.454929 6.741587,-8.292227 6.917829,-8.527329 l 0.320439,-0.427457 0.733061,1.457986 c 1.500152,2.983654 3.380715,5.472921 6.137476,8.124066 2.608497,2.508562 5.224105,4.3048 8.371062,5.748728 0.648796,0.297689 1.220563,0.582187 1.270594,0.632218 0.05003,0.05003 -3.746685,3.238026 -8.437146,7.084432 l -8.528112,6.993466 0.533242,1.033935 c 0.441879,0.856786 0.533242,1.23776 0.533242,2.223554 0,0.65429 -0.08991,1.357623 -0.199807,1.562962 -0.146063,0.272921 -0.199807,4.616676 -0.199807,16.149059 v 15.77571 l 0.479025,0.002 c 1.011415,0.004 4.735408,0.36427 6.37321,0.61691 5.005371,0.77211 7.77979,1.94916 7.77979,3.30059 0,1.45025 -3.551292,2.75472 -9.537517,3.50335 -2.431224,0.30405 -10.85058,0.45531 -13.414874,0.24101 z M 89.121907,50.354371 C 82.644264,47.753253 76.634676,42.051096 73.857115,35.870478 c -0.910203,-2.025381 -0.923491,-2.106282 -0.560781,-3.414323 0.439641,-1.585485 1.535928,-3.758966 2.539136,-5.03405 0.798795,-1.015275 0.818842,-1.027685 0.984818,-0.609668 0.728025,1.833569 1.818452,4.119977 2.512159,5.267499 4.109342,6.797625 10.980421,12.026667 18.009291,13.705466 0.777717,0.185753 1.458401,0.382102 1.512631,0.436333 0.188499,0.188499 -1.456426,1.692306 -2.94508,2.692422 -1.496909,1.005662 -3.431943,1.870064 -4.535983,2.026277 -0.416518,0.05893 -1.066505,-0.110265 -2.251399,-0.586063 z m 9.567687,-6.046274 c -2.70841,-0.539523 -6.468045,-2.160341 -9.003925,-3.881687 -4.200239,-2.851106 -7.655597,-6.752693 -9.827806,-11.09698 -0.722398,-1.444751 -1.698964,-3.90005 -1.698964,-4.271564 0,-0.242505 2.001371,-1.545358 3.228876,-2.101935 5.31871,-2.411618 11.546776,-1.552689 15.900799,2.192921 5.200816,4.474069 6.720376,11.599404 3.792056,17.78115 -0.42757,0.902617 -0.88036,1.633756 -1.00619,1.624753 -0.125835,-0.009 -0.749015,-0.119998 -1.384846,-0.246658 z"
       id="path6" /></g></svg>
