<?xml version="1.0" encoding="UTF-8" standalone="no"?>
<!-- Created with Inkscape (http://www.inkscape.org/) -->

<svg
   width="500"
   height="500"
   viewBox="0 0 132.29166 132.29167"
   version="1.1"
   id="svg1"
   xml:space="preserve"
   inkscape:export-filename="lojinha do pouso.svg"
   inkscape:export-xdpi="96"
   inkscape:export-ydpi="96"
   inkscape:version="1.4 (86a8ad7, 2024-10-11)"
   sodipodi:docname="ícone doação.svg"
   xmlns:inkscape="http://www.inkscape.org/namespaces/inkscape"
   xmlns:sodipodi="http://sodipodi.sourceforge.net/DTD/sodipodi-0.dtd"
   xmlns="http://www.w3.org/2000/svg"
   xmlns:svg="http://www.w3.org/2000/svg"><sodipodi:namedview
     id="namedview1"
     pagecolor="#ffffff"
     bordercolor="#000000"
     borderopacity="0.25"
     inkscape:showpageshadow="2"
     inkscape:pageopacity="0.0"
     inkscape:pagecheckerboard="0"
     inkscape:deskcolor="#d1d1d1"
     inkscape:document-units="mm"
     inkscape:zoom="1.4520903"
     inkscape:cx="188.00484"
     inkscape:cy="248.95146"
     inkscape:window-width="1920"
     inkscape:window-height="1017"
     inkscape:window-x="-8"
     inkscape:window-y="-8"
     inkscape:window-maximized="1"
     inkscape:current-layer="layer1" /><defs
     id="defs1"><linearGradient
       id="swatch9"
       inkscape:swatch="solid"><stop
         style="stop-color:#2a5c82;stop-opacity:1;"
         offset="0"
         id="stop9" /></linearGradient></defs><g
     inkscape:label="Camada 1"
     inkscape:groupmode="layer"
     id="layer1"><circle
       style="display:inline;opacity:1;fill:none;fill-opacity:1;stroke:#2a5c82;stroke-width:2.92123;stroke-linecap:round;stroke-linejoin:round;stroke-dasharray:none;stroke-dashoffset:0;stroke-opacity:1;paint-order:normal"
       id="path7"
       cx="66.145836"
       cy="66.145836"
       r="64.168785"
       inkscape:label="Círculos" /><path
       style="display:inline;fill:#6e0f0d;stroke-width:0.217152;fill-opacity:1"
       d="m 56.347286,104.39093 c -0.795725,-0.20937 -0.992491,-0.30932 -3.121049,-1.58529 -3.635923,-2.17957 -7.615591,-4.303114 -9.287095,-4.955584 -1.413823,-0.551889 -3.682391,-0.752276 -10.056017,-0.888254 -2.671433,-0.05695 -3.97312,-0.113862 -4.404867,-0.192437 -1.41294,-0.257144 -2.639223,-1.197126 -3.298596,-2.528463 -0.495355,-1.000165 -0.490616,-0.923057 -0.492089,-8.01045 -8.51e-4,-4.088697 0.0273,-6.556612 0.07792,-6.830419 0.266187,-1.43993 1.238787,-2.712747 2.563671,-3.355007 0.795927,-0.385837 1.12818,-0.453884 2.609335,-0.534402 1.854156,-0.100796 2.810222,-0.318951 6.889855,-1.572125 2.60769,-0.801025 3.938091,-0.994442 6.396636,-0.92996 4.948308,0.129785 8.194618,1.08076 11.870055,3.477223 0.482428,0.314553 1.671765,1.143788 2.642971,1.842743 3.162994,2.276339 5.039875,3.478367 5.935916,3.801586 1.960346,0.707136 6.33783,1.391043 11.304404,1.766119 3.018112,0.227929 3.289545,0.259203 3.881747,0.447264 l 0.58292,0.185111 0.908528,-0.764366 c 1.832011,-1.541317 3.481861,-3.047913 5.39,-4.921994 1.074405,-1.055227 2.143064,-2.076067 2.374797,-2.268534 2.24228,-1.862317 4.450849,-2.298321 6.549854,-1.293039 1.979101,0.947856 3.25654,2.783961 3.386389,4.867365 0.08487,1.362055 -0.309111,2.552365 -1.216262,3.674416 -0.88041,1.088969 -4.200161,5.374241 -6.053293,7.813852 -2.602925,3.426694 -4.429151,5.950811 -5.791977,8.005361 -0.656777,0.990154 -1.364136,1.999464 -1.571912,2.242934 -0.789325,0.92493 -2.203369,1.90568 -3.41747,2.37027 l -0.656759,0.2513 -11.720777,0.0155 c -11.318561,0.015 -11.739859,0.0105 -12.276833,-0.13076 z m 23.565255,-4.34709 c 0.873874,-0.468184 1.205897,-0.819694 2.191081,-2.319624 2.061074,-3.137958 6.125327,-8.616151 11.001595,-14.829007 0.830164,-1.05771 1.54777,-1.994829 1.594681,-2.082489 0.309966,-0.579168 -0.342734,-1.60248 -1.114445,-1.747255 -0.596261,-0.11186 -1.43002,0.431278 -2.822086,1.838406 -1.973102,1.994446 -4.368053,4.205675 -6.434939,5.941308 -0.421333,0.353808 -0.809536,0.681865 -0.862669,0.729014 -0.07729,0.06858 -0.06579,0.206168 0.05746,0.688095 0.191597,0.749134 0.205797,1.925583 0.03188,2.641342 -0.274356,1.129127 -1.005119,2.282604 -1.909746,3.01445 -0.539734,0.436642 -1.497669,0.924419 -2.143125,1.091269 -0.547903,0.141631 -17.357297,1.065271 -18.040802,0.9913 -0.570092,-0.06171 -1.532046,-0.321123 -2.183281,-0.588808 -1.388668,-0.570797 -2.818526,-1.438299 -5.680637,-3.446471 -2.478794,-1.739219 -3.122945,-2.168767 -4.048375,-2.699622 -0.918559,-0.526915 -1.27522,-0.853696 -1.498665,-1.373108 -0.636447,-1.479459 0.530964,-3.085808 2.136786,-2.940199 0.764112,0.06929 1.793002,0.671288 5.145661,3.010708 2.722665,1.899822 3.728156,2.552323 4.77634,3.099553 1.484751,0.775146 0.521217,0.748841 9.773116,0.266815 4.448251,-0.231754 8.231716,-0.440256 8.407696,-0.463337 0.657755,-0.08627 1.130431,-0.617211 1.120751,-1.258902 -0.0069,-0.458147 -0.184599,-0.796211 -0.542728,-1.032582 -0.25521,-0.16844 -0.413789,-0.196737 -1.510839,-0.269593 -5.33351,-0.354204 -9.692421,-0.938707 -12.576488,-1.686429 -1.354023,-0.351043 -2.297361,-0.708373 -3.18329,-1.205811 -0.807759,-0.453546 -3.725404,-2.412931 -5.268679,-3.538251 -4.927329,-3.592894 -7.164509,-4.441396 -12.068929,-4.577416 -2.358737,-0.06542 -3.03256,0.04601 -6.127417,1.013247 -3.356363,1.048966 -5.519763,1.490155 -7.307079,1.490155 -0.943277,0 -0.849172,-0.707414 -0.849172,6.383323 0,5.596299 0.01103,6.141948 0.126783,6.26985 0.1153,0.127403 0.276627,0.140204 1.781098,0.141315 3.124646,0.0023 7.421799,0.190255 9.697799,0.424169 2.307379,0.237136 3.231888,0.481829 5.171119,1.368659 1.986058,0.908243 5.676386,2.925084 8.873056,4.849302 0.744643,0.44823 1.440079,0.860284 1.545413,0.915664 0.155635,0.0818 2.266951,0.10077 11.26969,0.10116 l 11.078171,4.3e-4 z M 70.066344,76.351541 c -0.454982,-0.09228 -0.583792,-0.169284 -2.247221,-1.343337 -2.649539,-1.870055 -5.896449,-4.382613 -8.346623,-6.45887 -4.139005,-3.50736 -8.110797,-7.480456 -10.654672,-10.658165 -2.361612,-2.950032 -4.516543,-6.492982 -5.236859,-8.609982 -1.44791,-4.25539 -0.948493,-8.838656 1.381252,-12.676059 1.050773,-1.730766 2.726778,-3.469964 4.472,-4.640616 0.843607,-0.565871 2.59999,-1.429401 3.519427,-1.730334 2.29453,-0.751003 4.997635,-0.958875 6.987796,-0.537371 2.08401,0.441382 4.258166,1.533212 6.269575,3.148493 0.985121,0.791108 2.527844,2.281273 3.507165,3.387673 0.402011,0.454177 0.755806,0.816144 0.786213,0.804368 0.03041,-0.01176 0.360414,-0.36494 0.733351,-0.784805 3.893844,-4.383821 7.629195,-6.57433 11.52025,-6.755776 4.558548,-0.212572 9.163569,1.86466 12.054088,5.437355 3.250098,4.017131 4.235584,9.264667 2.647927,14.099644 -0.389109,1.184968 -0.852065,2.146209 -1.831512,3.802865 -1.931157,3.266372 -3.863437,5.748625 -7.223589,9.279571 -3.77813,3.970175 -10.106824,9.297895 -15.626642,13.155065 -1.499793,1.048034 -1.962387,1.232307 -2.711926,1.080281 z m 1.220467,-5.258314 c 1.217253,-0.877683 3.799029,-2.843485 4.997948,-3.805512 6.756922,-5.421835 11.669317,-10.436341 14.58544,-14.888623 1.90147,-2.903127 2.485715,-4.116231 2.889143,-5.998882 0.199679,-0.931811 0.199544,-3.067797 -2.12e-4,-4.021835 -0.889296,-4.246465 -4.02386,-7.439801 -8.243269,-8.397828 -0.871435,-0.197861 -2.497024,-0.271125 -3.265418,-0.147171 -1.559981,0.251653 -3.209863,1.065356 -4.893161,2.413256 -0.829219,0.663994 -2.225519,2.078661 -3.662142,3.710311 -1.788012,2.030742 -2.276198,2.363668 -3.363493,2.293791 -0.956503,-0.06147 -1.338599,-0.356569 -3.196449,-2.468638 -2.450501,-2.785821 -4.090487,-4.199719 -5.947177,-5.127301 -1.403684,-0.701266 -2.492495,-0.937391 -4.013764,-0.870443 -4.443934,0.195572 -8.281344,3.144637 -9.637719,7.406624 -0.335109,1.052971 -0.477083,2.011482 -0.477083,3.220934 0,1.617724 0.309663,3.050829 0.953274,4.411718 0.439162,0.928657 1.806724,3.213675 2.600384,4.344956 3.615586,5.15365 10.056926,11.263267 18.240828,17.301444 0.842669,0.621732 1.575496,1.131155 1.628503,1.132054 0.053,9.58e-4 0.414973,-0.228088 0.804367,-0.508855 z"
       id="path1"
       inkscape:label="Linhas" /><path
       d="m 82.962433,33.776468 c -0.27407,0.0075 -0.519796,0.02575 -0.711894,0.05673 -1.559981,0.251653 -3.20991,1.065608 -4.893208,2.413507 -0.829219,0.663994 -2.225515,2.07867 -3.662139,3.71032 -1.788012,2.030742 -2.276306,2.36361 -3.363602,2.293733 -0.956503,-0.06147 -1.338698,-0.356824 -3.196548,-2.468893 -2.450501,-2.785821 -4.090175,-4.199321 -5.946865,-5.126903 -1.403684,-0.701266 -2.492539,-0.937342 -4.013809,-0.870395 -4.443934,0.195572 -8.281448,3.144242 -9.637823,7.406229 -0.335109,1.052971 -0.477298,2.011861 -0.477298,3.221313 0,1.617724 0.310086,3.050517 0.953696,4.411406 0.439162,0.928657 1.806715,3.213935 2.600375,4.345216 3.615587,5.153649 10.056547,11.262984 18.240449,17.301161 0.842669,0.621732 1.575661,1.13111 1.628667,1.132008 0.053,9.59e-4 0.414809,-0.228051 0.804203,-0.508818 1.217252,-0.877683 3.799204,-2.843301 4.998123,-3.805328 6.756922,-5.421834 11.669391,-10.436273 14.585515,-14.888554 1.90147,-2.903127 2.485577,-4.116448 2.889005,-5.999099 0.199679,-0.931812 0.199757,-3.067876 0,-4.021914 -0.889295,-4.246465 -4.023891,-7.43972 -8.243301,-8.397747 -0.653576,-0.148396 -1.731333,-0.226391 -2.553546,-0.203978 z"
       style="display:inline;fill:#ff0000;fill-rule:evenodd;stroke-width:0.0306624;stroke-linecap:round;stroke-linejoin:round"
       id="path4"
       inkscape:label="Fundo coração" /><path
       style="fill:#ff0000;fill-rule:evenodd;stroke:#6e0f0d;stroke-width:0.995478;stroke-linecap:round;stroke-linejoin:round;stroke-dasharray:none;stroke-opacity:1"
       d="M 37.763679,46.687346 26.891372,46.843572 Z"
       id="path6-4" /><path
       style="fill:#ff0000;fill-rule:evenodd;stroke:#6e0f0d;stroke-width:0.995478;stroke-linecap:round;stroke-linejoin:round;stroke-dasharray:none;stroke-opacity:1"
       d="m 41.10376,58.996348 -9.336497,5.497099 z"
       id="path6-4-4" /><path
       style="fill:#ff0000;fill-rule:evenodd;stroke:#6e0f0d;stroke-width:0.995478;stroke-linecap:round;stroke-linejoin:round;stroke-dasharray:none;stroke-opacity:1"
       d="M 40.943799,32.067093 31.448911,26.840584 Z"
       id="path6-4-2" /><path
       style="fill:#6e0f0d;fill-rule:evenodd;stroke:#6e0f0d;stroke-width:0.995478;stroke-linecap:round;stroke-linejoin:round;stroke-dasharray:none;stroke-opacity:1;fill-opacity:1"
       d="m 101.43447,45.127035 10.87231,-0.156226 z"
       id="path6-4-21" /><path
       style="fill:#ff0000;fill-rule:evenodd;stroke:#6e0f0d;stroke-width:0.995478;stroke-linecap:round;stroke-linejoin:round;stroke-dasharray:none;stroke-opacity:1"
       d="m 98.094389,32.818033 9.336501,-5.497099 z"
       id="path6-4-4-6" /><path
       style="fill:none;fill-rule:evenodd;stroke:#6e0f0d;stroke-width:0.995478;stroke-linecap:round;stroke-linejoin:round;stroke-dasharray:none;stroke-opacity:1;fill-opacity:1"
       d="m 98.254348,59.747288 9.494892,5.226509 z"
       id="path6-4-2-8" /></g></svg>
